<svg xmlns="http://www.w3.org/2000/svg" xmlns:xlink="http://www.w3.org/1999/xlink" width="500" zoomAndPan="magnify" viewBox="0 0 375 374.999991" height="500" preserveAspectRatio="xMidYMid meet" version="1.0"><defs><g/><clipPath id="df545bcb5d"><path d="M 8.511719 91.65625 L 177 91.65625 L 177 144.816406 L 8.511719 144.816406 Z M 8.511719 91.65625 " clip-rule="nonzero"/></clipPath><clipPath id="f4882b857c"><path d="M 66.753906 138.605469 L 364.496094 138.605469 L 364.496094 213.605469 L 66.753906 213.605469 Z M 66.753906 138.605469 " clip-rule="nonzero"/></clipPath></defs><g clip-path="url(#df545bcb5d)"><path fill="#ffffff" d="M 8.511719 91.65625 L 176.726562 91.65625 L 176.726562 144.925781 L 8.511719 144.925781 Z M 8.511719 91.65625 " fill-opacity="1" fill-rule="nonzero"/></g><g clip-path="url(#f4882b857c)"><path stroke-linecap="butt" transform="matrix(0.750118, 0, 0, 0.752941, 66.752777, 138.60396)" fill="none" stroke-linejoin="miter" d="M 0.00150554 0.00200315 L 396.928635 0.00200315 L 396.928635 99.611375 L 0.00150554 99.611375 L 0.00150554 0.00200315 " stroke="#ffffff" stroke-width="18" stroke-opacity="1" stroke-miterlimit="4"/></g><g fill="#000000" fill-opacity="1"><g transform="translate(15.000004, 138.897165)"><g><path d="M 14.765625 0.5625 C 10.742188 0.5625 7.285156 -0.457031 4.390625 -2.5 L 4.390625 -30.796875 C 4.390625 -31.921875 4.253906 -32.859375 3.984375 -33.609375 C 3.710938 -34.359375 3.304688 -35.003906 2.765625 -35.546875 L 2.765625 -35.8125 L 8.6875 -38.046875 L 8.9375 -38.046875 L 8.9375 -21.046875 L 9.1875 -21.046875 C 9.90625 -22.546875 10.976562 -23.757812 12.40625 -24.6875 C 13.84375 -25.625 15.476562 -26.09375 17.3125 -26.09375 C 19.394531 -26.09375 21.207031 -25.53125 22.75 -24.40625 C 24.300781 -23.289062 25.476562 -21.753906 26.28125 -19.796875 C 27.082031 -17.835938 27.484375 -15.628906 27.484375 -13.171875 C 27.484375 -10.890625 26.945312 -8.691406 25.875 -6.578125 C 24.800781 -4.472656 23.289062 -2.753906 21.34375 -1.421875 C 19.40625 -0.0976562 17.210938 0.5625 14.765625 0.5625 Z M 15.0625 -0.515625 C 17.476562 -0.515625 19.34375 -1.550781 20.65625 -3.625 C 21.96875 -5.707031 22.625 -8.515625 22.625 -12.046875 C 22.625 -15.523438 21.976562 -18.257812 20.6875 -20.25 C 19.394531 -22.238281 17.625 -23.234375 15.375 -23.234375 C 13.570312 -23.234375 12.070312 -22.660156 10.875 -21.515625 C 9.6875 -20.378906 9.039062 -18.910156 8.9375 -17.109375 L 8.9375 -5.5625 C 9.007812 -4.78125 9.300781 -4 9.8125 -3.21875 C 10.320312 -2.4375 11.023438 -1.789062 11.921875 -1.28125 C 12.828125 -0.769531 13.875 -0.515625 15.0625 -0.515625 Z M 15.0625 -0.515625 "/></g></g></g><g fill="#000000" fill-opacity="1"><g transform="translate(41.50049, 138.897165)"><g><path d="M 24.765625 -8.125 C 24.222656 -5.53125 23.003906 -3.429688 21.109375 -1.828125 C 19.222656 -0.234375 16.9375 0.5625 14.25 0.5625 C 12 0.5625 9.976562 0.0625 8.1875 -0.9375 C 6.40625 -1.945312 4.992188 -3.40625 3.953125 -5.3125 C 2.921875 -7.21875 2.40625 -9.460938 2.40625 -12.046875 C 2.40625 -14.847656 2.960938 -17.3125 4.078125 -19.4375 C 5.203125 -21.5625 6.703125 -23.203125 8.578125 -24.359375 C 10.453125 -25.515625 12.460938 -26.09375 14.609375 -26.09375 C 16.617188 -26.09375 18.351562 -25.648438 19.8125 -24.765625 C 21.28125 -23.878906 22.394531 -22.710938 23.15625 -21.265625 C 23.925781 -19.828125 24.3125 -18.253906 24.3125 -16.546875 L 6.328125 -16.546875 L 6.328125 -16.03125 C 6.328125 -13.238281 6.753906 -10.875 7.609375 -8.9375 C 8.460938 -7 9.628906 -5.535156 11.109375 -4.546875 C 12.585938 -3.554688 14.265625 -3.0625 16.140625 -3.0625 C 18.046875 -3.0625 19.710938 -3.507812 21.140625 -4.40625 C 22.578125 -5.3125 23.617188 -6.550781 24.265625 -8.125 Z M 12.96875 -24.5625 C 11.300781 -24.5625 9.851562 -23.984375 8.625 -22.828125 C 7.40625 -21.671875 6.675781 -19.9375 6.4375 -17.625 L 19.453125 -17.625 C 19.179688 -19.832031 18.5 -21.539062 17.40625 -22.75 C 16.320312 -23.957031 14.84375 -24.5625 12.96875 -24.5625 Z M 12.96875 -24.5625 "/></g></g></g><g fill="#000000" fill-opacity="1"><g transform="translate(64.835055, 138.897165)"><g><path d="M 1.890625 5.921875 L 4.4375 5.921875 C 6.625 5.921875 8.390625 5.46875 9.734375 4.5625 C 11.078125 3.664062 12.207031 2.195312 13.125 0.15625 L 3.671875 -20.890625 C 2.890625 -22.660156 1.921875 -24.125 0.765625 -25.28125 L 0.765625 -25.53125 L 8.984375 -25.53125 L 8.984375 -25.28125 C 8.472656 -24.601562 8.21875 -23.820312 8.21875 -22.9375 C 8.21875 -22.25 8.40625 -21.445312 8.78125 -20.53125 L 15.328125 -5.3125 L 21.34375 -20.28125 C 21.6875 -21.164062 21.859375 -21.960938 21.859375 -22.671875 C 21.859375 -23.835938 21.5 -24.707031 20.78125 -25.28125 L 20.78125 -25.53125 L 26.25 -25.53125 L 26.25 -25.28125 C 24.71875 -24.15625 23.546875 -22.570312 22.734375 -20.53125 L 13.234375 2.8125 C 12.585938 4.445312 11.863281 5.789062 11.0625 6.84375 C 10.257812 7.894531 9.125 8.734375 7.65625 9.359375 C 6.195312 9.992188 4.273438 10.3125 1.890625 10.3125 Z M 1.890625 5.921875 "/></g></g></g><g fill="#000000" fill-opacity="1"><g transform="translate(87.607931, 138.897165)"><g><path d="M 14.5625 0.5625 C 12.144531 0.5625 10.003906 -0.0234375 8.140625 -1.203125 C 6.285156 -2.378906 4.851562 -3.976562 3.84375 -6 C 2.84375 -8.03125 2.34375 -10.285156 2.34375 -12.765625 C 2.34375 -15.253906 2.84375 -17.507812 3.84375 -19.53125 C 4.851562 -21.5625 6.285156 -23.160156 8.140625 -24.328125 C 10.003906 -25.503906 12.144531 -26.09375 14.5625 -26.09375 C 16.976562 -26.09375 19.113281 -25.503906 20.96875 -24.328125 C 22.820312 -23.160156 24.25 -21.5625 25.25 -19.53125 C 26.257812 -17.507812 26.765625 -15.253906 26.765625 -12.765625 C 26.765625 -10.285156 26.257812 -8.03125 25.25 -6 C 24.25 -3.976562 22.820312 -2.378906 20.96875 -1.203125 C 19.113281 -0.0234375 16.976562 0.5625 14.5625 0.5625 Z M 14.5625 -0.515625 C 16.875 -0.515625 18.640625 -1.660156 19.859375 -3.953125 C 21.085938 -6.253906 21.703125 -9.191406 21.703125 -12.765625 C 21.703125 -16.335938 21.085938 -19.273438 19.859375 -21.578125 C 18.640625 -23.878906 16.875 -25.03125 14.5625 -25.03125 C 12.238281 -25.03125 10.460938 -23.878906 9.234375 -21.578125 C 8.015625 -19.273438 7.40625 -16.335938 7.40625 -12.765625 C 7.40625 -9.191406 8.015625 -6.253906 9.234375 -3.953125 C 10.460938 -1.660156 12.238281 -0.515625 14.5625 -0.515625 Z M 14.5625 -0.515625 "/></g></g></g><g fill="#000000" fill-opacity="1"><g transform="translate(113.393534, 138.897165)"><g><path d="M 3.828125 -0.25 C 4.710938 -1.476562 5.15625 -3.0625 5.15625 -5 L 5.15625 -18.84375 C 5.15625 -19.96875 5.019531 -20.90625 4.75 -21.65625 C 4.476562 -22.40625 4.070312 -23.035156 3.53125 -23.546875 L 3.53125 -23.796875 L 9.453125 -26.09375 L 9.703125 -26.09375 L 9.703125 -20.9375 L 9.953125 -20.9375 C 10.640625 -22.46875 11.695312 -23.707031 13.125 -24.65625 C 14.550781 -25.613281 16.21875 -26.09375 18.125 -26.09375 C 20.71875 -26.09375 22.78125 -25.25 24.3125 -23.5625 C 25.84375 -21.882812 26.609375 -19.71875 26.609375 -17.0625 L 26.609375 -5 C 26.609375 -3.0625 27.050781 -1.476562 27.9375 -0.25 L 27.9375 0 L 20.734375 0 L 20.734375 -0.25 C 21.617188 -1.476562 22.0625 -3.0625 22.0625 -5 L 22.0625 -17.015625 C 22.0625 -18.785156 21.515625 -20.25 20.421875 -21.40625 C 19.335938 -22.5625 17.910156 -23.140625 16.140625 -23.140625 C 14.367188 -23.140625 12.851562 -22.566406 11.59375 -21.421875 C 10.332031 -20.285156 9.703125 -18.816406 9.703125 -17.015625 L 9.703125 -5 C 9.703125 -3.0625 10.144531 -1.476562 11.03125 -0.25 L 11.03125 0 L 3.828125 0 Z M 3.828125 -0.25 "/></g></g></g><g fill="#000000" fill-opacity="1"><g transform="translate(141.323794, 138.897165)"><g><path d="M 12.828125 0.5625 C 10.679688 0.5625 8.820312 0.0195312 7.25 -1.0625 C 5.6875 -2.15625 4.488281 -3.65625 3.65625 -5.5625 C 2.820312 -7.46875 2.40625 -9.613281 2.40625 -12 C 2.40625 -14.6875 2.957031 -17.101562 4.0625 -19.25 C 5.164062 -21.394531 6.65625 -23.070312 8.53125 -24.28125 C 10.40625 -25.488281 12.445312 -26.09375 14.65625 -26.09375 C 17.28125 -26.09375 19.425781 -25.363281 21.09375 -23.90625 L 21.09375 -30.796875 C 21.09375 -31.921875 20.960938 -32.859375 20.703125 -33.609375 C 20.453125 -34.359375 20.054688 -35.003906 19.515625 -35.546875 L 19.515625 -35.8125 L 25.390625 -38.046875 L 25.640625 -38.046875 L 25.640625 -5.828125 C 25.640625 -3.640625 26.1875 -2.140625 27.28125 -1.328125 L 27.28125 -1.078125 L 21.34375 0.5625 L 21.09375 0.5625 L 21.09375 -4.4375 L 20.84375 -4.4375 C 20.125 -2.976562 19.082031 -1.78125 17.71875 -0.84375 C 16.363281 0.09375 14.734375 0.5625 12.828125 0.5625 Z M 14.609375 -2.296875 C 16.441406 -2.296875 17.953125 -2.875 19.140625 -4.03125 C 20.335938 -5.1875 20.988281 -6.648438 21.09375 -8.421875 L 21.09375 -17.984375 C 20.988281 -19.753906 20.375 -21.351562 19.25 -22.78125 C 18.132812 -24.207031 16.570312 -24.921875 14.5625 -24.921875 C 12.238281 -24.921875 10.40625 -23.863281 9.0625 -21.75 C 7.71875 -19.644531 7.046875 -16.851562 7.046875 -13.375 C 7.046875 -11.132812 7.367188 -9.175781 8.015625 -7.5 C 8.660156 -5.832031 9.550781 -4.546875 10.6875 -3.640625 C 11.832031 -2.742188 13.140625 -2.296875 14.609375 -2.296875 Z M 14.609375 -2.296875 "/></g></g></g><g fill="#ffffff" fill-opacity="1"><g transform="translate(87.137262, 193.599075)"><g><path d="M 37.546875 -35.671875 L 25.25 0 L 12.546875 0 L 0.203125 -35.671875 L 10.828125 -35.671875 L 18.921875 -9.921875 L 26.96875 -35.671875 Z M 37.546875 -35.671875 "/></g></g></g><g fill="#ffffff" fill-opacity="1"><g transform="translate(124.940451, 193.599075)"><g><path d="M 25.40625 -5.8125 L 12.75 -5.8125 L 10.828125 0 L 0.40625 0 L 13.40625 -35.671875 L 24.84375 -35.671875 L 37.8125 0 L 27.328125 0 Z M 22.921875 -13.40625 L 19.078125 -24.953125 L 15.28125 -13.40625 Z M 22.921875 -13.40625 "/></g></g></g><g fill="#ffffff" fill-opacity="1"><g transform="translate(163.14849, 193.599075)"><g><path d="M 12.75 -7.59375 L 23.84375 -7.59375 L 23.84375 0 L 2.828125 0 L 2.828125 -35.671875 L 12.75 -35.671875 Z M 12.75 -7.59375 "/></g></g></g><g fill="#ffffff" fill-opacity="1"><g transform="translate(187.996369, 193.599075)"><g><path d="M 12.75 -27.734375 L 12.75 -21.90625 L 24.140625 -21.90625 L 24.140625 -14.375 L 12.75 -14.375 L 12.75 -7.953125 L 25.65625 -7.953125 L 25.65625 0 L 2.828125 0 L 2.828125 -35.671875 L 25.65625 -35.671875 L 25.65625 -27.734375 Z M 12.75 -27.734375 "/></g></g></g><g fill="#ffffff" fill-opacity="1"><g transform="translate(215.728829, 193.599075)"><g><path d="M 35.875 0 L 25.96875 0 L 12.75 -19.9375 L 12.75 0 L 2.828125 0 L 2.828125 -35.671875 L 12.75 -35.671875 L 25.96875 -15.484375 L 25.96875 -35.671875 L 35.875 -35.671875 Z M 35.875 0 "/></g></g></g><g fill="#ffffff" fill-opacity="1"><g transform="translate(254.442938, 193.599075)"><g><path d="M 1.625 -17.921875 C 1.625 -21.421875 2.351562 -24.546875 3.8125 -27.296875 C 5.28125 -30.046875 7.363281 -32.1875 10.0625 -33.71875 C 12.769531 -35.257812 15.878906 -36.03125 19.390625 -36.03125 C 23.835938 -36.03125 27.578125 -34.835938 30.609375 -32.453125 C 33.648438 -30.078125 35.609375 -26.851562 36.484375 -22.78125 L 25.8125 -22.78125 C 25.164062 -24.125 24.273438 -25.148438 23.140625 -25.859375 C 22.015625 -26.566406 20.710938 -26.921875 19.234375 -26.921875 C 16.941406 -26.921875 15.109375 -26.101562 13.734375 -24.46875 C 12.367188 -22.832031 11.6875 -20.648438 11.6875 -17.921875 C 11.6875 -15.148438 12.367188 -12.945312 13.734375 -11.3125 C 15.109375 -9.675781 16.941406 -8.859375 19.234375 -8.859375 C 20.710938 -8.859375 22.015625 -9.210938 23.140625 -9.921875 C 24.273438 -10.628906 25.164062 -11.65625 25.8125 -13 L 36.484375 -13 C 35.609375 -8.925781 33.648438 -5.695312 30.609375 -3.3125 C 27.578125 -0.9375 23.835938 0.25 19.390625 0.25 C 15.878906 0.25 12.769531 -0.515625 10.0625 -2.046875 C 7.363281 -3.585938 5.28125 -5.734375 3.8125 -8.484375 C 2.351562 -11.234375 1.625 -14.378906 1.625 -17.921875 Z M 1.625 -17.921875 "/></g></g></g><g fill="#ffffff" fill-opacity="1"><g transform="translate(292.802799, 193.599075)"><g><path d="M 12.75 -35.671875 L 12.75 0 L 2.828125 0 L 2.828125 -35.671875 Z M 12.75 -35.671875 "/></g></g></g><g fill="#ffffff" fill-opacity="1"><g transform="translate(308.389662, 193.599075)"><g><path d="M 25.40625 -5.8125 L 12.75 -5.8125 L 10.828125 0 L 0.40625 0 L 13.40625 -35.671875 L 24.84375 -35.671875 L 37.8125 0 L 27.328125 0 Z M 22.921875 -13.40625 L 19.078125 -24.953125 L 15.28125 -13.40625 Z M 22.921875 -13.40625 "/></g></g></g></svg>