<?xml version="1.0" encoding="utf-8"?>
<!-- Generator: Adobe Illustrator 25.2.0, SVG Export Plug-In . SVG Version: 6.00 Build 0)  -->
<svg version="1.1" id="Lag_1" xmlns="http://www.w3.org/2000/svg" xmlns:xlink="http://www.w3.org/1999/xlink" x="0px" y="0px"
	 viewBox="0 0 580.1 389.4" style="enable-background:new 0 0 580.1 389.4;" xml:space="preserve">
<style type="text/css">
	.st0{fill:#EAEAEA;}
	.st1{fill-rule:evenodd;clip-rule:evenodd;fill:#3A98D4;}
	.st2{fill-rule:evenodd;clip-rule:evenodd;fill:#FFFFFF;}
	.st3{fill:#010101;}
	.st4{fill:#EF81A0;}
	.st5{fill:#FFFFFF;}
	.st6{fill:#009ADE;}
	.st7{fill:#002F87;}
	.st8{fill:#002169;}
	.st9{fill:#CC1E6A;}
</style>
<g>
	<rect class="st0" width="580.1" height="389.4"/>
	<g id="E-Com">
		<g id="Amex">
			<g id="Amex-2">
				<path class="st1" d="M475.4,55.9H104.7c-14.6,0-26.4,11.9-26.5,26.5v225c0,14.6,11.9,26.4,26.5,26.5h370.6
					c14.6,0,26.4-11.9,26.5-26.5v-225C501.8,67.7,490,55.9,475.4,55.9z"/>
			</g>
			<g id="Amex-3">
				<path class="st2" d="M166.9,198.8h21.2l-10.6-26.5L166.9,198.8z M462.1,148.5h-54.3l-13.2,14.6l-11.9-14.6H267.6l-10.6,23.8
					l-10.6-23.8H200v10.6l-5.3-10.6H155l-38.4,92.6h46.3l5.3-14.6h13.2l5.4,14.6h51.6v-10.6l4,10.6h26.4l4-11.9v11.9h105.9
					l13.2-14.6l11.9,14.6h54.3l-34.4-46.3L462.1,148.5z M302,227.9h-14.6v-51.6l-22.5,51.6h-13.2l-22.5-51.6v51.6h-30.4l-5.3-14.6
					h-31.8l-5.3,14.6h-17.2l27.8-66.2h22.5l25.1,62.2v-62.2h25.2l19.8,45l18.5-45h25.2v66.2H302z M433,227.9h-19.9L396,205.4
					l-19.9,22.5h-59.6v-66.2h60.9l18.5,21.2l19.9-21.2h18.5l-29.1,33.1L433,227.9z M331.1,175v11.9h33.1v13.2h-33.1v13.2h37.1
					l17.2-19.8L369.5,175L331.1,175z"/>
			</g>
		</g>
	</g>
</g>
</svg>
