<?xml version="1.0" encoding="utf-8"?>
<!-- Generator: Adobe Illustrator 25.2.0, SVG Export Plug-In . SVG Version: 6.00 Build 0)  -->
<svg version="1.1" id="Lag_1" xmlns="http://www.w3.org/2000/svg" xmlns:xlink="http://www.w3.org/1999/xlink" x="0px" y="0px"
	 viewBox="0 0 580.1 389.4" style="enable-background:new 0 0 580.1 389.4;" xml:space="preserve">
<style type="text/css">
	.st0{fill:#EAEAEA;}
	.st1{fill:#010101;}
	.st2{fill:#EF81A0;}
	.st3{fill:#FFFFFF;}
	.st4{fill:#009ADE;}
	.st5{fill:#002F87;}
	.st6{fill:#002169;}
	.st7{fill:#CC1E6A;}
</style>
<g>
	<rect y="0" class="st0" width="580.1" height="389.4"/>
	<g id="comp_23-apple-pay_Credit_card">
		<path class="st1" d="M285.5,147.1h-29.9v80H268v-27.3h17.1c15.6,0,26.6-10.8,26.6-26.4S300.9,147.1,285.5,147.1z M282.1,189.3H268
			v-31.8h14.2c10.7,0,16.9,5.8,16.9,15.9S292.9,189.3,282.1,189.3z"/>
		<path class="st1" d="M340.9,168.3c-13.1,0-22.8,7.6-23.2,17.9h11.2c1-4.9,5.5-8.2,11.7-8.2c7.6,0,11.8,3.5,11.8,10.1v4.4l-15.4,1
			c-14.4,0.9-22.1,6.8-22.1,17.1s8,17.2,19.5,17.2c7.8,0,14.9-3.9,18.2-10.2h0.2v9.6h11.4v-39.9h0.1
			C364.2,175.8,355,168.3,340.9,168.3z M352.3,205.3c0,7.5-6.3,12.9-14.7,12.9c-6.6,0-10.8-3.2-10.8-8c0-5,4-7.9,11.8-8.5l13.7-0.9
			V205.3z"/>
		<path class="st1" d="M197.3,161c4.9,0.4,9.8-2.5,12.9-6.1c3.2-3.9,4.9-8.9,4.5-13.9c-4.3,0.2-9.7,2.9-12.8,6.6
			C199.1,150.8,196.7,156.1,197.3,161z"/>
		<path class="st1" d="M232.6,204.7c-0.1-0.1-11.4-4.5-11.5-17.6c-0.1-11,8.9-16.2,9.3-16.5c-5.1-7.6-13.1-8.5-15.8-8.6
			c-7.1-0.4-13.2,4.1-16.6,4.1c-3.4,0-8.6-3.9-14.2-3.8c-7.4,0.2-14.2,4.3-17.8,10.9c-7.7,13.3-2,32.8,5.4,43.6
			c3.6,5.3,8,11.2,13.7,11c5.4-0.2,7.6-3.5,14.1-3.5s8.5,3.5,14.2,3.5c6-0.1,9.6-5.3,13.3-10.7C229.3,213.2,231.3,209.1,232.6,204.7
			z"/>
		<path class="st1" d="M423.9,169h-12.5l-14.5,47.3h-0.2L382,169h-13l21,58.2l-1.1,3.5c-1.9,6-5,8.3-10.4,8.3c-1,0-2.9-0.1-3.6-0.2
			v9.6c1.6,0.2,3.1,0.3,4.7,0.3c12.1,0,17.7-4.6,22.7-18.7L423.9,169z"/>
		<path class="st1" d="M422.1,332.3h-264c-23.3,0-42.1-19-42.1-42.3V98.3c0-23.4,18.9-42.3,42.1-42.3h264c23.3,0,42.1,19,42.1,42.3
			V290C464.2,313.4,445.3,332.3,422.1,332.3z M158.1,75.3c-12.7,0-22.9,10.3-22.9,23V290c0,12.7,10.3,23,22.9,23h264
			c12.7,0,22.9-10.3,22.9-23V98.3c0-12.7-10.3-23-22.9-23H158.1z"/>
	</g>
</g>
</svg>
