<?xml version="1.0" encoding="utf-8"?>
<!-- Generator: Adobe Illustrator 25.2.0, SVG Export Plug-In . SVG Version: 6.00 Build 0)  -->
<svg version="1.1" id="Lag_1" xmlns="http://www.w3.org/2000/svg" xmlns:xlink="http://www.w3.org/1999/xlink" x="0px" y="0px"
	 viewBox="0 0 580.1 389.4" style="enable-background:new 0 0 580.1 389.4;" xml:space="preserve">
<style type="text/css">
	.st0{fill:#EAEAEA;}
	.st1{fill:#6C6CB0;}
	.st2{fill:#D42316;}
	.st3{fill:#2197D5;}
	.st4{fill-rule:evenodd;clip-rule:evenodd;fill:#3A98D4;}
	.st5{fill-rule:evenodd;clip-rule:evenodd;fill:#FFFFFF;}
	.st6{fill:#010101;}
	.st7{fill:#EF81A0;}
	.st8{fill:#FFFFFF;}
	.st9{fill:#009ADE;}
	.st10{fill:#002F87;}
	.st11{fill:#002169;}
	.st12{fill:#CC1E6A;}
</style>
<g>
	<rect x="0.5" y="0" class="st0" width="579.6" height="389.4"/>
	<polygon class="st1" points="352.8,303.8 228.8,303.8 228.8,86.7 352.8,86.7 	"/>
	<path class="st2" d="M236.7,195.3c0-42.4,19.9-82.4,54.1-108.6C229.3,39.6,140.2,50,91.8,110c-48.4,60-37.7,146.8,23.8,193.9
		c51.4,39.4,123.7,39.4,175.1,0C256.6,277.7,236.7,237.6,236.7,195.3"/>
	<path class="st3" d="M520.1,195.3c0,76.2-63.4,138.1-141.7,138.1c-31.8,0-62.6-10.4-87.6-29.5c61.5-47.1,72.2-133.9,23.8-193.9
		c-7-8.6-15-16.4-23.8-23.2c61.5-47.1,150.6-36.7,199,23.2C509.4,134.3,520.1,164.3,520.1,195.3"/>
</g>
</svg>
