<?xml version="1.0" encoding="utf-8"?>
<!-- Generator: Adobe Illustrator 25.2.0, SVG Export Plug-In . SVG Version: 6.00 Build 0)  -->
<svg version="1.1" id="Lag_1" xmlns="http://www.w3.org/2000/svg" xmlns:xlink="http://www.w3.org/1999/xlink" x="0px" y="0px"
	 viewBox="0 0 580.1 389.4" style="enable-background:new 0 0 580.1 389.4;" xml:space="preserve">
<style type="text/css">
	.st0{fill:#EAEAEA;}
	.st1{fill:#010101;}
	.st2{fill:#CC1E6A;}
	.st3{fill:#FFFFFF;}
</style>
<g>
	<rect y="0" class="st0" width="580.1" height="389.4"/>
	<rect x="159.2" y="213.5" class="st1" width="53.6" height="89"/>
	<path class="st1" d="M216.8,169.1c0,16.7-13.6,30.3-30.3,30.3s-30.3-13.6-30.3-30.3c0-16.7,13.6-30.3,30.3-30.3l0,0
		C203.2,138.8,216.8,152.4,216.8,169.1C216.8,169.1,216.8,169.1,216.8,169.1z"/>
	<path class="st1" d="M314.2,49.6H122.1V341h192.1v-0.1c42-0.6,75.3-11,98.8-31.1c28.7-24.4,43.2-63,43.2-114.5
		c0-24.7-3.9-46.8-11.4-65.8c-7.2-18.1-17.9-33.6-31.7-45.8C388.8,61.9,354.7,50.2,314.2,49.6L314.2,49.6z M310.6,68.9
		c37.2,0,68.3,10.1,89.7,29.1c24.3,21.6,36.6,54.2,36.6,97.2c0,85-41.3,126.3-126.3,126.3H141.4V68.8
		C158.4,68.9,304,68.9,310.6,68.9L310.6,68.9z"/>
	<path class="st2" d="M305.2,302.6h-67.9V92.4h65.2c56.6,0,117,22.4,117,105.4c0,87.7-60.3,104.8-117,104.8H305.2z"/>
	<path class="st3" d="M225.6,146.7h18.6c3.2-0.1,6.5,0.2,9.6,1c2.9,0.8,5.5,2.4,7.6,4.6c2.2,2.3,3.9,5.1,4.8,8.2
		c1.2,3.9,1.7,7.9,1.6,12c0.1,3.6-0.4,7.3-1.5,10.7c-1.1,3.4-2.9,6.4-5.4,9c-2,1.9-4.5,3.3-7.1,4.1c-3,0.8-6,1.1-9.1,1.1h-19.2
		V146.7z M235.9,155.2v33.4h7.6c2.1,0.1,4.1-0.1,6.2-0.5c1.5-0.4,3-1.1,4.1-2.1c1.3-1.4,2.3-3.1,2.7-4.9c0.8-3,1.1-6.1,1.1-9.3
		c0.1-3-0.3-6.1-1.1-9c-0.5-1.9-1.5-3.5-2.9-4.9c-1.3-1.2-3-2-4.7-2.4c-2.8-0.4-5.6-0.6-8.4-0.5h-4.6L235.9,155.2z"/>
	<path class="st3" d="M224.3,145.3v53.4h20.6c3.2,0.1,6.4-0.3,9.5-1.2c2.9-0.9,5.5-2.3,7.7-4.3c2.6-2.7,4.6-5.9,5.8-9.5
		c1.1-3.6,1.7-7.4,1.6-11.2c0.1-4.2-0.5-8.4-1.7-12.4c-1.1-3.2-2.8-6.2-5.1-8.7c-2.2-2.4-5.1-4.1-8.2-5c-3.3-0.8-6.7-1.2-10-1.1
		L224.3,145.3L224.3,145.3z M244.3,148.1c3.1-0.1,6.2,0.2,9.3,0.9c2.7,0.8,5.1,2.2,7,4.2c2,2.2,3.6,4.8,4.5,7.7
		c1.1,3.7,1.7,7.6,1.5,11.5c0.1,3.5-0.4,7-1.4,10.3c-1,3.2-2.7,6.1-5.1,8.4c-1.9,1.7-4.2,3-6.7,3.7c-2.8,0.7-5.7,1.1-8.6,1H227V148
		C229.4,148.1,244.3,148.1,244.3,148.1z"/>
	<path class="st3" d="M234.4,153.9v36.2h9c2.2,0,4.4-0.1,6.6-0.5c1.7-0.4,3.4-1.2,4.7-2.4c1.5-1.5,2.6-3.4,3.1-5.5
		c0.8-3.1,1.2-6.4,1.1-9.6c0.1-3.2-0.3-6.4-1.1-9.5c-0.6-2.1-1.7-4-3.3-5.5c-1.5-1.4-3.4-2.3-5.4-2.7c-1.5-0.4-4.3-0.5-8.7-0.5
		L234.4,153.9z M240.4,156.7c2.7-0.1,5.4,0.1,8.1,0.5c1.5,0.3,2.9,1,4.1,2c1.2,1.2,2.1,2.7,2.5,4.3c0.8,2.8,1.1,5.7,1,8.6
		c0.1,3-0.2,6-1,8.9c-0.3,1.6-1.1,3.1-2.3,4.2c-1,0.9-2.2,1.5-3.6,1.7c-1.9,0.4-3.9,0.5-5.9,0.5H237v-30.7
		C238.6,156.7,240.4,156.7,240.4,156.7z"/>
	<path class="st3" d="M279.6,197.2v-50.5H317v8.6h-27.2v11.2h25.3v8.6h-25.3v13.6H318v8.6L279.6,197.2z"/>
	<path class="st3" d="M278.1,145.3v53.4h41.2v-11.3h-28.2v-10.9h25.3v-11.3h-25.3v-8.4h27.2v-11.4L278.1,145.3L278.1,145.3z
		 M315.6,148.1v5.8h-27.2v14h25.3v5.8h-25.3v16.4h28.2v5.8h-35.6v-47.8L315.6,148.1z"/>
	<path class="st3" d="M375,197.2h-11.1l-4.4-11.5h-20.2l-4.1,11.5h-10.8l19.7-50.6h10.9L375,197.2z M356.3,177.2l-6.9-18.7
		l-6.9,18.7H356.3z"/>
	<path class="st3" d="M343,145.3l-20.7,53.4H336c0,0,3.7-9.9,4.1-11.5h18.3c0.6,1.5,4.4,11.5,4.4,11.5H377l-21.3-53.4H343z
		 M353.9,148.1c0.7,1.6,17.8,44.4,19.1,47.8h-8.1c-0.6-1.5-4.4-11.5-4.4-11.5h-22.1c0,0-3.7,9.9-4.1,11.5h-7.8
		c1.4-3.5,17.9-46.1,18.5-47.8H353.9z"/>
	<path class="st3" d="M340.5,178.6h17.8l-9-24.1L340.5,178.6z M349.3,162.5c1.5,4.1,4.1,11,4.9,13.3h-9.8
		C345.3,173.5,347.8,166.5,349.3,162.5z"/>
	<path class="st3" d="M383.6,197.2V147h10.2v41.6h25.4v8.6H383.6z"/>
	<path class="st3" d="M382.1,145.7v52.9h38.4v-11.3h-25.4v-41.6H382.1z M392.4,148.5v41.6h25.4v5.8h-32.8v-47.4H392.4z"/>
</g>
</svg>
