<?xml version="1.0" encoding="utf-8"?>
<!-- Generator: Adobe Illustrator 25.2.0, SVG Export Plug-In . SVG Version: 6.00 Build 0)  -->
<svg version="1.1" id="Lag_1" xmlns="http://www.w3.org/2000/svg" xmlns:xlink="http://www.w3.org/1999/xlink" x="0px" y="0px"
	 viewBox="0 0 580.1 389.4" style="enable-background:new 0 0 580.1 389.4;" xml:space="preserve">
<style type="text/css">
	.st0{fill:#EAEAEA;}
	.st1{fill:#6C6CB0;}
	.st2{fill:#D42316;}
	.st3{fill:#2197D5;}
	.st4{fill-rule:evenodd;clip-rule:evenodd;fill:#3A98D4;}
	.st5{fill-rule:evenodd;clip-rule:evenodd;fill:#FFFFFF;}
	.st6{fill:#010101;}
	.st7{fill:#EF81A0;}
	.st8{fill:#FFFFFF;}
	.st9{fill:#EA5B0C;}
	.st10{fill:#DE0716;}
	.st11{fill:#F59E00;}
	.st12{fill:#009ADE;}
	.st13{fill:#002F87;}
	.st14{fill:#002169;}
	.st15{fill:#CC1E6A;}
</style>
<g>
	<rect x="0" y="0" class="st0" width="580.1" height="389.4"/>
	<rect x="225.6" y="84.2" class="st9" width="128.5" height="218.1"/>
	<path class="st10" d="M233.8,193.3c0-44.2,21.9-83.6,56.1-109c-26.3-19.4-58.1-29.8-90.8-29.7c-81.1,0-146.9,62.1-146.9,138.7
		S118,331.9,199.1,331.9c32.7,0.1,64.5-10.3,90.8-29.6C255.7,276.9,233.8,237.5,233.8,193.3z"/>
	<path class="st11" d="M527.5,193.3c0,76.6-65.8,138.7-146.9,138.7c-32.7,0.1-64.5-10.3-90.8-29.6c34.2-25.4,56.1-64.8,56.1-109
		s-21.9-83.6-56.1-109c26.3-19.4,58.1-29.8,90.8-29.7C461.8,54.6,527.5,116.7,527.5,193.3z"/>
</g>
</svg>
