<?xml version="1.0" encoding="utf-8"?>
<!-- Generator: Adobe Illustrator 25.2.0, SVG Export Plug-In . SVG Version: 6.00 Build 0)  -->
<svg version="1.1" id="Lag_1" xmlns="http://www.w3.org/2000/svg" xmlns:xlink="http://www.w3.org/1999/xlink" x="0px" y="0px"
	 viewBox="0 0 580.1 389.4" style="enable-background:new 0 0 580.1 389.4;" xml:space="preserve">
<style type="text/css">
	.st0{fill:#EAEAEA;}
	.st1{fill:#596FB4;}
	.st2{opacity:0.7;fill:url(#SVGID_1_);enable-background:new    ;}
	.st3{opacity:0.7;fill:url(#SVGID_2_);enable-background:new    ;}
	.st4{opacity:0.4;}
	.st5{opacity:0.9;fill:url(#SVGID_3_);enable-background:new    ;}
	.st6{opacity:0.7;fill:url(#SVGID_4_);enable-background:new    ;}
	.st7{fill:#6C6CB0;}
	.st8{fill:#D42316;}
	.st9{fill:#2197D5;}
	.st10{fill-rule:evenodd;clip-rule:evenodd;fill:#3A98D4;}
	.st11{fill-rule:evenodd;clip-rule:evenodd;fill:#FFFFFF;}
	.st12{fill:#010101;}
	.st13{fill:#EF81A0;}
	.st14{fill:#FFFFFF;}
	.st15{fill:none;}
	.st16{fill:#EA5B0C;}
	.st17{fill:#DE0716;}
	.st18{fill:#F59E00;}
	.st19{fill:#009ADE;}
	.st20{fill:#002F87;}
	.st21{fill:#002169;}
	.st22{fill:#CC1E6A;}
</style>
<g>
	<rect x="0" y="0" class="st0" width="580.1" height="389.4"/>
	<path class="st1" d="M256,332.4c-9.5,0-18.2-5.7-21.8-14.6l-81.5-196.6c-5-12,0.7-25.8,12.7-30.8c0,0,0,0,0,0l85.3-35.3
		c12-5,25.8,0.7,30.8,12.7l81.5,196.6c5,12-0.7,25.8-12.8,30.8L265,330.6C262.1,331.8,259.1,332.4,256,332.4z M259.9,65.9
		c-1.4,0-2.8,0.3-4.2,0.8l-85.3,35.3c-5.5,2.3-8.2,8.7-5.9,14.2L245.9,313c2.3,5.5,8.7,8.2,14.2,5.9l85.3-35.4l0,0
		c5.6-2.3,8.2-8.6,5.9-14.2c0,0,0,0,0,0L269.9,72.7C268.2,68.6,264.2,66,259.9,65.9L259.9,65.9z"/>
	
		<linearGradient id="SVGID_1_" gradientUnits="userSpaceOnUse" x1="3390.0771" y1="-281.6907" x2="3390.2271" y2="-284.9007" gradientTransform="matrix(2.7993 -1.1595 7.6881 18.5607 -7017.7588 9303.46)">
		<stop  offset="0" style="stop-color:#514779"/>
		<stop  offset="0.3" style="stop-color:#514779;stop-opacity:0.62"/>
		<stop  offset="0.61" style="stop-color:#514779;stop-opacity:0.28"/>
		<stop  offset="0.85" style="stop-color:#514779;stop-opacity:8.000000e-02"/>
		<stop  offset="1" style="stop-color:#514779;stop-opacity:0"/>
	</linearGradient>
	<polygon class="st2" points="275.3,85.6 287,80.8 319.3,158.6 307.5,163.5 	"/>
	
		<linearGradient id="SVGID_2_" gradientUnits="userSpaceOnUse" x1="6038.2471" y1="-175.8408" x2="6038.4067" y2="-179.0508" gradientTransform="matrix(-2.7993 1.1595 -8.7036 -21.0122 15695.9746 -10510.2578)">
		<stop  offset="0" style="stop-color:#514779"/>
		<stop  offset="0.3" style="stop-color:#514779;stop-opacity:0.62"/>
		<stop  offset="0.61" style="stop-color:#514779;stop-opacity:0.28"/>
		<stop  offset="0.85" style="stop-color:#514779;stop-opacity:8.000000e-02"/>
		<stop  offset="1" style="stop-color:#514779;stop-opacity:0"/>
	</linearGradient>
	<polygon class="st3" points="309.4,168.1 321.1,163.2 357.7,251.4 345.9,256.2 	"/>
	<path class="st1" d="M331.1,197.8c-24.4,10.1-44.8,24.1-58.1,40.9l-34.4-83.1c15.7-18.2,35.7-32.3,58.1-40.9
		c24.4-10.1,49-15,70-12.2l34.4,83.1C377.1,183.8,353.1,188,331.1,197.8z"/>
	<g class="st4">
		
			<linearGradient id="SVGID_3_" gradientUnits="userSpaceOnUse" x1="4606.9023" y1="-208.836" x2="4608.7324" y2="-209.8861" gradientTransform="matrix(38.7421 0 0 32.6437 -178222.0938 7010.5737)">
			<stop  offset="0" style="stop-color:#514779"/>
			<stop  offset="0.18" style="stop-color:#514779;stop-opacity:0.87"/>
			<stop  offset="0.53" style="stop-color:#514779;stop-opacity:0.54"/>
			<stop  offset="1" style="stop-color:#514779;stop-opacity:0"/>
		</linearGradient>
		<path class="st5" d="M331.1,197.8c-24.4,10.1-44.8,24.1-58.1,40.9l-34.4-83.1c15.7-18.2,35.7-32.3,58.1-40.9
			c24.4-10.1,49-15,70-12.2l34.4,83.1C377.1,183.8,353.1,188,331.1,197.8z"/>
		
			<linearGradient id="SVGID_4_" gradientUnits="userSpaceOnUse" x1="4608.3726" y1="-210.2395" x2="4608.2725" y2="-210.9395" gradientTransform="matrix(38.7421 0 0 32.6437 -178222.0938 7010.5737)">
			<stop  offset="0" style="stop-color:#514779"/>
			<stop  offset="0.64" style="stop-color:#514779;stop-opacity:0.33"/>
			<stop  offset="1" style="stop-color:#514779;stop-opacity:0"/>
		</linearGradient>
		<path class="st6" d="M331.1,197.8c-24.4,10.1-44.8,24.1-58.1,40.9l-34.4-83.1c15.7-18.2,35.7-32.3,58.1-40.9
			c24.4-10.1,49-15,70-12.2l34.4,83.1C377.1,183.8,353.1,188,331.1,197.8z"/>
	</g>
	<path class="st1" d="M342.3,223.1c-26.4,0-50.6,5.1-69.3,15.5v-83.9c21.5-10.8,45.3-16.2,69.3-15.5c26.4,0,51.1,4.9,69.3,15.5v83.9
		C390.2,227.8,366.3,222.5,342.3,223.1z"/>
</g>
</svg>
