<?xml version="1.0" encoding="utf-8"?>
<!-- Generator: Adobe Illustrator 25.2.0, SVG Export Plug-In . SVG Version: 6.00 Build 0)  -->
<svg version="1.1" id="Lag_1" xmlns="http://www.w3.org/2000/svg" xmlns:xlink="http://www.w3.org/1999/xlink" x="0px" y="0px"
	 viewBox="0 0 580.1 389.4" style="enable-background:new 0 0 580.1 389.4;" xml:space="preserve">
<style type="text/css">
	.st0{fill:#EAEAEA;}
	.st1{clip-path:url(#SVGID_2_);}
	.st2{clip-path:url(#SVGID_4_);}
	.st3{fill:#FFFFFF;}
	.st4{fill:#DC0D19;}
	.st5{fill:#596FB4;}
	.st6{opacity:0.7;fill:url(#SVGID_5_);enable-background:new    ;}
	.st7{opacity:0.7;fill:url(#SVGID_6_);enable-background:new    ;}
	.st8{opacity:0.4;}
	.st9{opacity:0.9;fill:url(#SVGID_7_);enable-background:new    ;}
	.st10{opacity:0.7;fill:url(#SVGID_8_);enable-background:new    ;}
	.st11{fill:#6C6CB0;}
	.st12{fill:#D42316;}
	.st13{fill:#2197D5;}
	.st14{fill-rule:evenodd;clip-rule:evenodd;fill:#3A98D4;}
	.st15{fill-rule:evenodd;clip-rule:evenodd;fill:#FFFFFF;}
	.st16{fill:#010101;}
	.st17{fill:#EF81A0;}
	.st18{fill:none;}
	.st19{fill:#EA5B0C;}
	.st20{fill:#DE0716;}
	.st21{fill:#F59E00;}
	.st22{fill:#009ADE;}
	.st23{fill:#002F87;}
	.st24{fill:#002169;}
	.st25{fill:#CC1E6A;}
	.st26{fill:#0B55A3;}
</style>
<g>
	<rect class="st0" width="580.1" height="389.4"/>
	<g id="VISA-2">
		<path id="g4158" class="st26" d="M267.3,248.3h-28.7l17.9-110.7h28.6L267.3,248.3z M371,140.2c-8.1-3.1-16.7-4.7-25.4-4.7
			c-28.2,0-48.2,15.1-48.3,36.6c0,15.9,14.2,24.8,25.4,30.1c11.2,5.3,14.7,8.9,14.7,13.7c0,7.4-8.9,10.8-17.2,10.8
			c-9.3,0.2-18.5-1.8-26.8-5.8l-3.9-1.8l-4.1,25.4c10.2,3.9,21.1,5.9,32,5.8c30,0,49.6-14.9,49.8-38.1c0-12.7-7.6-22.3-24-30.1
			c-10-5.1-16.1-8.5-16.1-13.6s5.1-9.5,16.4-9.5c7.3-0.3,14.7,1.2,21.4,4.2l2.7,1.1l3.9-23.9L371,140.2z M409.2,209H433l-6.6-32
			l-2-9.5c-1.4,4.2-3.8,10.8-3.7,10.7C420.7,178,411.4,202.7,409.2,209L409.2,209z M444.5,137.6L444.5,137.6l23,110.7h-26.4
			c0,0-2.7-12.7-3.5-16.7h-36.8c-1.1,2.9-6.1,16.7-6.1,16.7h-30l42.6-101.7c2.2-6.1,8.4-9.9,14.8-9.1L444.5,137.6z M214.6,137.6
			l-28,75.5l-3.2-15.4c-6.9-19.9-21-36.4-39.6-46.4l25.4,96.8h30.3l45-110.6L214.6,137.6z M160.5,137.6h-46.1v2.2
			c31.4,6.5,57.4,28.3,69.4,58l-9.9-50.8c-1.3-5.9-6.7-9.9-12.7-9.3H160.5z"/>
	</g>
</g>
</svg>
